<svg width="57" height="53" viewBox="0 0 57 53" fill="none" xmlns="http://www.w3.org/2000/svg">
<path d="M0 26.5C0 11.8645 11.8645 0 26.5 0H30.5C45.1355 0 57 11.8645 57 26.5C57 41.1355 45.1355 53 30.5 53H26.5C11.8645 53 0 41.1355 0 26.5Z" fill="#FD1212"/>
<path d="M26 36H22C21.4696 36 20.9609 35.7893 20.5858 35.4142C20.2107 35.0391 20 34.5304 20 34V20C20 19.4696 20.2107 18.9609 20.5858 18.5858C20.9609 18.2107 21.4696 18 22 18H26" stroke="black" stroke-width="2" stroke-linecap="round" stroke-linejoin="round"/>
<path d="M33 32L38 27L33 22" stroke="black" stroke-width="2" stroke-linecap="round" stroke-linejoin="round"/>
<path d="M38 27H26" stroke="black" stroke-width="2" stroke-linecap="round" stroke-linejoin="round"/>
</svg>
